<svg width="21" height="21" viewBox="0 0 21 21" fill="none" xmlns="http://www.w3.org/2000/svg">
<path d="M13.8854 14.7828L15.6354 13.0328C15.8696 12.7985 16.1675 12.6381 16.492 12.5714C16.8166 12.5048 17.1535 12.5348 17.4612 12.6578L19.5924 13.5109C19.9065 13.6366 20.1758 13.8536 20.3655 14.1337C20.5551 14.4139 20.6565 14.7445 20.6565 15.0828V18.9586C20.657 19.189 20.6106 19.417 20.5199 19.6288C20.4293 19.8406 20.2964 20.0316 20.1293 20.1902C19.9623 20.3489 19.7646 20.4718 19.5484 20.5513C19.3323 20.6309 19.1021 20.6656 18.8721 20.6531C3.93304 19.7234 0.915853 7.07032 0.355697 2.22501C0.328567 1.98813 0.351894 1.74819 0.424145 1.52097C0.496396 1.29376 0.615933 1.08441 0.774893 0.906707C0.933854 0.729002 1.12864 0.586965 1.34643 0.489937C1.56422 0.392909 1.80008 0.34309 2.03851 0.343757H5.84554C6.18388 0.343746 6.51446 0.445109 6.79463 0.634772C7.07481 0.824434 7.29173 1.09369 7.41742 1.40782L8.26976 3.53907C8.39277 3.84671 8.4228 4.18367 8.35614 4.50821C8.28948 4.83275 8.12906 5.1306 7.89476 5.36485L6.14476 7.11485C6.14476 7.11485 7.11507 13.9367 13.8854 14.7828Z" fill="#424242"/>
</svg>
