<svg width="21" height="21" viewBox="0 0 21 21" fill="none" xmlns="http://www.w3.org/2000/svg">
<path d="M10.4897 0.0834961C4.73975 0.0834961 0.0834961 4.75016 0.0834961 10.5002C0.0834961 16.2502 4.73975 20.9168 10.4897 20.9168C16.2502 20.9168 20.9168 16.2502 20.9168 10.5002C20.9168 4.75016 16.2502 0.0834961 10.4897 0.0834961ZM14.6668 14.6668C14.5705 14.7634 14.456 14.84 14.33 14.8923C14.204 14.9446 14.0689 14.9715 13.9325 14.9715C13.796 14.9715 13.6609 14.9446 13.5349 14.8923C13.4089 14.84 13.2944 14.7634 13.1981 14.6668L9.771 11.2397C9.67257 11.1433 9.59427 11.0282 9.54063 10.9013C9.48698 10.7743 9.45907 10.638 9.4585 10.5002V6.3335C9.4585 5.76058 9.92725 5.29183 10.5002 5.29183C11.0731 5.29183 11.5418 5.76058 11.5418 6.3335V10.0731L14.6668 13.1981C15.0731 13.6043 15.0731 14.2606 14.6668 14.6668Z" fill="#424242"/>
</svg>
