<svg width="19" height="19" viewBox="0 0 19 19" fill="none" xmlns="http://www.w3.org/2000/svg">
<g clip-path="url(#clip0_138_13)">
<path d="M18.0004 2.9995L10.8754 0.624505C10.7861 0.594799 10.691 0.586721 10.598 0.600935C10.505 0.61515 10.4167 0.65125 10.3404 0.706263C10.2641 0.761277 10.2019 0.833631 10.1591 0.917369C10.1162 1.00111 10.0938 1.09383 10.0938 1.18791V2.96916H5.34375C5.0289 2.96946 4.72703 3.09467 4.50439 3.3173C4.28176 3.53994 4.15655 3.84181 4.15625 4.15666V5.93756C4.15625 6.09503 4.21881 6.24605 4.33016 6.3574C4.44151 6.46875 4.59253 6.53131 4.75 6.53131C4.90747 6.53131 5.05849 6.46875 5.16984 6.3574C5.28119 6.24605 5.34375 6.09503 5.34375 5.93756V4.15684H10.0938V14.8437H5.34375V13.0624C5.34375 12.905 5.28119 12.7539 5.16984 12.6426C5.05849 12.5312 4.90747 12.4687 4.75 12.4687C4.59253 12.4687 4.44151 12.5312 4.33016 12.6426C4.21881 12.7539 4.15625 12.905 4.15625 13.0624V14.8437C4.15656 15.1585 4.28178 15.4604 4.50441 15.683C4.72704 15.9057 5.0289 16.0309 5.34375 16.0312H10.0938V17.8124C10.0938 17.9065 10.1162 17.9992 10.1592 18.0829C10.2021 18.1666 10.2642 18.2389 10.3405 18.2939C10.4168 18.3489 10.5051 18.385 10.5981 18.3992C10.6911 18.4135 10.7861 18.4054 10.8754 18.3757L18.0004 16.0007C18.1186 15.9613 18.2214 15.8857 18.2942 15.7846C18.3671 15.6835 18.4063 15.562 18.4062 15.4374V3.5628C18.4063 3.43819 18.3671 3.31674 18.2942 3.21564C18.2214 3.11455 18.1186 3.03893 18.0004 2.9995ZM14.25 10.0937H13.0625C12.905 10.0937 12.754 10.0311 12.6427 9.91978C12.5313 9.80843 12.4688 9.65741 12.4688 9.49994C12.4688 9.34247 12.5313 9.19144 12.6427 9.08009C12.754 8.96875 12.905 8.90619 13.0625 8.90619H14.25C14.4075 8.90619 14.5585 8.96875 14.6698 9.08009C14.7812 9.19144 14.8438 9.34247 14.8438 9.49994C14.8438 9.65741 14.7812 9.80843 14.6698 9.91978C14.5585 10.0311 14.4075 10.0937 14.25 10.0937Z" fill="#BDBDBD"/>
<path d="M6.11147 10.8615C6.00331 10.9735 5.94347 11.1235 5.94482 11.2791C5.94617 11.4348 6.00862 11.5837 6.1187 11.6938C6.22879 11.8039 6.37771 11.8664 6.53339 11.8677C6.68907 11.8691 6.83905 11.8092 6.95103 11.7011L8.73228 9.91981C8.84312 9.80815 8.90532 9.65719 8.90532 9.49985C8.90532 9.34252 8.84312 9.19156 8.73228 9.07989L6.95103 7.29894C6.89626 7.24223 6.83074 7.197 6.7583 7.16588C6.68586 7.13476 6.60795 7.11838 6.52911 7.1177C6.45028 7.11701 6.37209 7.13204 6.29912 7.16189C6.22615 7.19174 6.15986 7.23583 6.10411 7.29158C6.04836 7.34733 6.00427 7.41362 5.97442 7.48659C5.94456 7.55956 5.92954 7.63775 5.93023 7.71659C5.93091 7.79542 5.94729 7.87333 5.97841 7.94577C6.00953 8.01821 6.05476 8.08373 6.11147 8.1385L6.87913 8.90622H1.1875C1.03003 8.90622 0.879005 8.96878 0.767655 9.08013C0.656306 9.19148 0.59375 9.3425 0.59375 9.49997C0.59375 9.65744 0.656306 9.80847 0.767655 9.91982C0.879005 10.0312 1.03003 10.0937 1.1875 10.0937H6.87913L6.11147 10.8615Z" fill="#BDBDBD"/>
</g>
<defs>
<clipPath id="clip0_138_13">
<rect width="19" height="19" fill="white"/>
</clipPath>
</defs>
</svg>
