<svg width="18" height="10" viewBox="0 0 18 10" fill="none" xmlns="http://www.w3.org/2000/svg">
<path d="M1.49925 0.249796C1.79131 0.249225 2.07436 0.350944 2.29925 0.537295L8.99925 6.1373L15.7117 0.737296C15.8396 0.633464 15.9867 0.555923 16.1447 0.509134C16.3026 0.462344 16.4682 0.447227 16.632 0.464651C16.7958 0.482076 16.9545 0.531696 17.099 0.610663C17.2436 0.689631 17.3711 0.796387 17.4742 0.924795C17.5781 1.05266 17.6556 1.19978 17.7024 1.3577C17.7492 1.51562 17.7643 1.68124 17.7469 1.84502C17.7295 2.00881 17.6798 2.16754 17.6009 2.31208C17.5219 2.45663 17.4152 2.58414 17.2867 2.6873L9.78675 8.7248C9.56308 8.90865 9.28253 9.00916 8.993 9.00916C8.70347 9.00916 8.42291 8.90865 8.19925 8.7248L0.699249 2.4748C0.572676 2.36986 0.468046 2.24098 0.391357 2.09555C0.314667 1.95012 0.26742 1.79098 0.252325 1.62726C0.23723 1.46354 0.254585 1.29845 0.303391 1.14144C0.352196 0.98444 0.431494 0.838606 0.536747 0.712296C0.653065 0.568904 0.799704 0.453061 0.966125 0.373093C1.13255 0.293124 1.31462 0.251017 1.49925 0.249796Z" fill="url(#paint0_linear_123_1199)"/>
<defs>
<linearGradient id="paint0_linear_123_1199" x1="21.5392" y1="14.4838" x2="-1.13168" y2="4.45258" gradientUnits="userSpaceOnUse">
<stop stop-color="#976464"/>
<stop offset="1" stop-color="#CFA5A5"/>
</linearGradient>
</defs>
</svg>
