<svg width="13" height="13" viewBox="0 0 13 13" fill="none" xmlns="http://www.w3.org/2000/svg">
<path d="M3.80467 11.3169L10 5.50877L7.05733 2.75002L0.862 8.55814C0.776709 8.6382 0.716123 8.73841 0.686667 8.84814L0 12.125L3.49467 11.4813C3.612 11.4538 3.71933 11.3969 3.80467 11.3169ZM12 3.63377C12.25 3.39936 12.3904 3.08147 12.3904 2.75002C12.3904 2.41856 12.25 2.10068 12 1.86627L10.9427 0.875016C10.6926 0.640677 10.3536 0.509033 10 0.509033C9.64645 0.509033 9.30737 0.640677 9.05733 0.875016L8 1.86627L10.9427 4.62502L12 3.63377Z" fill="#BDBDBD"/>
</svg>
