<svg width="16" height="16" viewBox="0 0 16 16" fill="none" xmlns="http://www.w3.org/2000/svg">
<path d="M15.4987 2.96526C14.8287 1.60607 12.8987 0.494002 10.6537 1.14147C9.58093 1.44778 8.64496 2.10466 7.9987 3.0048C7.35244 2.10466 6.41647 1.44778 5.3437 1.14147C3.09371 0.503887 1.16871 1.60607 0.498712 2.96526C-0.441286 4.86813 -0.051287 7.00825 1.65871 9.32629C2.99871 11.1402 4.9137 12.9788 7.6937 15.114C7.78156 15.1817 7.88978 15.2185 8.0012 15.2185C8.11262 15.2185 8.22084 15.1817 8.3087 15.114C11.0837 12.9838 13.0037 11.16 14.3437 9.32629C16.0487 7.00825 16.4387 4.86813 15.4987 2.96526Z" fill="url(#paint0_linear_121_725)"/>
<defs>
<linearGradient id="paint0_linear_121_725" x1="-3.45894" y1="-7.96453" x2="19.8753" y2="-2.17182" gradientUnits="userSpaceOnUse">
<stop stop-color="#976464"/>
<stop offset="1" stop-color="#CFA5A5"/>
</linearGradient>
</defs>
</svg>
