<svg width="97" height="20" viewBox="0 0 97 20" fill="none" xmlns="http://www.w3.org/2000/svg">
<path d="M86.08 10.88H83.104V13.792H82.096V10.88H79.12V9.936H82.096V7.008H83.104V9.936H86.08V10.88ZM90.9791 9.392C92.6005 9.392 93.7791 9.68533 94.5151 10.272C95.2618 10.848 95.6351 11.6587 95.6351 12.704C95.6351 13.3547 95.4805 13.936 95.1711 14.448C94.8725 14.96 94.4191 15.3653 93.8111 15.664C93.2031 15.952 92.4565 16.096 91.5711 16.096C90.7711 16.096 90.0085 15.968 89.2831 15.712C88.5685 15.4453 87.9925 15.0933 87.5551 14.656L88.1151 13.744C88.4885 14.128 88.9791 14.4427 89.5871 14.688C90.1951 14.9227 90.8511 15.04 91.5551 15.04C92.4831 15.04 93.1978 14.832 93.6991 14.416C94.2111 14 94.4671 13.4453 94.4671 12.752C94.4671 11.984 94.1791 11.4027 93.6031 11.008C93.0378 10.6133 92.0778 10.416 90.7231 10.416H88.3391L88.9151 4.8H95.0431V5.824H89.9231L89.5391 9.392H90.9791Z" fill="#424242"/>
<circle cx="8.5" cy="9.5" r="8.5" fill="#696837"/>
<circle cx="46.5" cy="9.5" r="8.5" fill="#D8C1AA"/>
<circle cx="27.5" cy="9.5" r="8.5" fill="#81292F"/>
<circle cx="65.5" cy="9.5" r="8.5" fill="#EED53A"/>
</svg>
