<svg width="26" height="26" viewBox="0 0 26 26" fill="none" xmlns="http://www.w3.org/2000/svg">
<path fill-rule="evenodd" clip-rule="evenodd" d="M1.49449 1.31431C1.84612 0.962681 2.32303 0.765137 2.82031 0.765137C3.31759 0.765137 3.79451 0.962681 4.14614 1.31431L14.7527 11.9209C15.1044 12.2725 15.3019 12.7495 15.3019 13.2467C15.3019 13.744 15.1044 14.2209 14.7527 14.5726L4.14614 25.1792C3.79451 25.5308 3.31759 25.7283 2.82031 25.7283C2.32303 25.7283 1.84612 25.5308 1.49449 25.1792C1.14286 24.8275 0.945312 24.3506 0.945312 23.8533C0.945312 23.3561 1.14286 22.8791 1.49449 22.5275L10.7753 13.2467L1.49449 3.96596C1.14286 3.61433 0.945312 3.13742 0.945312 2.64014C0.945312 2.14286 1.14286 1.66594 1.49449 1.31431Z" fill="url(#paint0_linear_112_373)"/>
<path fill-rule="evenodd" clip-rule="evenodd" d="M12.1014 14.5726C11.7498 14.2209 11.5522 13.744 11.5522 13.2467C11.5522 12.7495 11.7498 12.2725 12.1014 11.9209L22.708 1.31431C23.0596 0.962681 23.5366 0.765137 24.0338 0.765137C24.5311 0.765137 25.008 0.962682 25.3597 1.31431C25.7113 1.66594 25.9088 2.14286 25.9088 2.64014C25.9088 3.13742 25.7113 3.61433 25.3597 3.96596L16.0789 13.2467L25.3597 22.5275C25.7113 22.8791 25.9088 23.3561 25.9088 23.8533C25.9088 24.3506 25.7113 24.8275 25.3597 25.1792C25.008 25.5308 24.5311 25.7283 24.0338 25.7283C23.5366 25.7283 23.0596 25.5308 22.708 25.1792L12.1014 14.5726Z" fill="url(#paint1_linear_112_373)"/>
<defs>
<linearGradient id="paint0_linear_112_373" x1="-4.4522" y1="-14.8369" x2="32.3977" y2="-6.67875" gradientUnits="userSpaceOnUse">
<stop stop-color="#976464"/>
<stop offset="1" stop-color="#CFA5A5"/>
</linearGradient>
<linearGradient id="paint1_linear_112_373" x1="-4.4522" y1="-14.8369" x2="32.3977" y2="-6.67875" gradientUnits="userSpaceOnUse">
<stop stop-color="#976464"/>
<stop offset="1" stop-color="#CFA5A5"/>
</linearGradient>
</defs>
</svg>
